<?xml version="1.0" standalone="no"?>
<!DOCTYPE svg PUBLIC "-//W3C//DTD SVG 20010904//EN"
 "http://www.w3.org/TR/2001/REC-SVG-20010904/DTD/svg10.dtd">
<svg version="1.0" xmlns="http://www.w3.org/2000/svg"
 width="5000.000000pt" height="5000.000000pt" viewBox="0 0 5000.000000 5000.000000"
 preserveAspectRatio="xMidYMid meet">

<g transform="translate(0.000000,5000.000000) scale(0.100000,-0.100000)"
fill="#000000" stroke="none">
<path d="M23633 36268 c-721 -1251 -1048 -1816 -2906 -5033 -571 -990 -1769
-3064 -2662 -4610 -2469 -4276 -5127 -8880 -5373 -9305 -1034 -1787 -1465
-2537 -1465 -2545 0 -6 294 -520 653 -1143 l653 -1132 2626 0 2626 0 36 63
c20 34 316 548 659 1142 343 594 991 1717 1440 2495 449 778 1055 1827 1345
2330 290 503 988 1712 1550 2685 562 974 1217 2108 1455 2520 809 1402 1643
2848 2170 3760 l525 910 -2621 5 -2622 5 222 385 c249 431 2283 3954 3143
5444 308 534 564 971 569 972 7 2 994 -1698 1281 -2206 l32 -56 -401 -695
c-220 -382 -515 -892 -654 -1134 l-254 -440 1307 -3 c719 -1 1310 1 1314 5 4
5 300 517 659 1138 483 838 649 1134 642 1145 -5 8 -595 1031 -1312 2273
l-1303 2257 -1311 0 -1311 0 -712 -1232z m-1254 -9000 c503 -871 651 -1135
644 -1147 -5 -9 -290 -502 -633 -1096 -619 -1074 -1589 -2753 -2445 -4235
-693 -1200 -2094 -3626 -2815 -4875 -358 -621 -655 -1133 -659 -1138 -4 -4
-595 -6 -1314 -5 l-1308 3 364 630 c1133 1964 2295 3976 2952 5115 2134 3697
3931 6810 4363 7558 102 177 188 322 192 322 3 0 300 -509 659 -1132z"/>
<path d="M28958 27307 c-350 -606 -1020 -1766 -1488 -2577 -469 -811 -1239
-2145 -1713 -2965 -473 -819 -1219 -2111 -1657 -2870 -2347 -4063 -3664 -6345
-3679 -6372 l-12 -23 1313 0 1313 1 197 342 c108 188 523 909 923 1602 400
693 1089 1886 1530 2650 1150 1993 2499 4330 3218 5575 341 591 938 1626 1327
2300 389 674 994 1721 1344 2327 350 607 636 1105 636 1108 0 3 -588 5 -1307
5 l-1308 0 -637 -1103z"/>
<path d="M33476 26042 c-43 -74 -1201 -2080 -1243 -2153 -16 -27 -188 274
2288 -4014 l318 -550 -2625 -5 -2624 -5 -268 -465 c-148 -256 -438 -759 -646
-1118 -207 -359 -379 -659 -382 -667 -5 -13 598 -15 5235 -15 2883 0 5241 2
5241 4 0 2 -89 159 -199 348 -109 188 -544 942 -966 1673 -422 732 -1229 2129
-1793 3105 -564 976 -1304 2259 -1645 2850 -341 591 -625 1080 -631 1087 -8 9
-23 -10 -60 -75z"/>
<path d="M28280 13635 l0 -1135 5250 0 5250 0 0 1135 0 1135 -5250 0 -5250 0
0 -1135z"/>
</g>
</svg>
